<?xml version="1.0" encoding="utf-8"?>
<!-- Generator: Adobe Illustrator 27.5.0, SVG Export Plug-In . SVG Version: 6.00 Build 0)  -->
<svg version="1.1" id="Layer_1" xmlns="http://www.w3.org/2000/svg" xmlns:xlink="http://www.w3.org/1999/xlink" x="0px" y="0px"
	 viewBox="0 0 448 496" style="enable-background:new 0 0 448 496;" xml:space="preserve">
<style type="text/css">
	.st0{fill:none;stroke:#FFFFFF;stroke-miterlimit:10;}
</style>
<polygon class="st0" points="24.1,471.7 200.3,471.7 248.3,471.7 424.5,471.7 424.5,424 392.3,424 392.3,375.7 424.5,375.7 
	424.5,328 344,328 344,231.9 344,135.7 424.5,135.7 424.5,23.3 344.5,23.3 248.3,23.3 248.3,88.3 200.3,88.3 200.3,23.3 104.6,23.3 
	24.1,23.3 24.1,136.6 104.3,136.6 104.3,232 104.3,328.6 24.1,328.6 24.1,376 56.6,376 56.6,424 24.1,424 "/>
<polyline class="st0" points="24.1,87.7 104.6,87.7 200.3,87.7 "/>
<polyline class="st0" points="248.3,88.3 344.2,88.3 424.5,88.3 "/>
<polyline class="st0" points="104.6,23.3 104.6,87.7 104.6,136.6 "/>
<polyline class="st0" points="152,87.7 152,136.1 200.3,136.1 200.3,184.9 "/>
<polygon class="st0" points="152,282.1 152,232 152,184.9 224,184.9 296.3,184.9 296.3,231.7 296.3,282.1 "/>
<polyline class="st0" points="296.3,88.3 296.3,136.6 248.3,136.6 248.3,184.9 "/>
<polyline class="st0" points="56.6,424 104.6,424 104.6,376.3 104.6,328.6 152,328.6 200.3,328.6 200.3,376.3 152,376.3 
	104.6,376.3 "/>
<line class="st0" x1="24.1" y1="232" x2="104.3" y2="232"/>
<polyline class="st0" points="200.3,471.7 200.3,424 152,424 152,376.3 "/>
<polyline class="st0" points="392.3,424 344,424 344,376.3 344,328 296.3,328 296.3,282.1 "/>
<polyline class="st0" points="296.3,328 248.3,328 248.3,376.3 296.3,376.3 296.3,424 248.3,424 248.3,471.7 "/>
<path class="st0" d="M200.3,376.3"/>
<line class="st0" x1="200.3" y1="376.3" x2="248.3" y2="376.3"/>
<line class="st0" x1="152" y1="282.1" x2="152" y2="328.6"/>
<polyline class="st0" points="424.5,231.7 344,231.7 296.3,231.7 "/>
<polyline class="st0" points="344,134.8 344,88.3 344,23.3 "/>
<line class="st0" x1="296.3" y1="376.3" x2="344" y2="376.3"/>
<line class="st0" x1="152" y1="232" x2="104.3" y2="232"/>
<line class="st0" x1="224.2" y1="233.5" x2="224.2" y2="184.9"/>
</svg>
